<svg xmlns="http://www.w3.org/2000/svg" viewBox="0 0 1600 900" width="1600" height="900" role="img"><rect x="-2.00" y="-2.00" width="1604.00" height="904.00" fill="#F3F3EF"/><line x1="-20.00" y1="248.00" x2="1620.00" y2="248.00" stroke="#DCDCD5" stroke-width="2.4" stroke-linecap="round"/><line x1="-20.00" y1="450.00" x2="1620.00" y2="450.00" stroke="#DCDCD5" stroke-width="2.4" stroke-linecap="round"/><line x1="-20.00" y1="652.00" x2="1620.00" y2="652.00" stroke="#DCDCD5" stroke-width="2.4" stroke-linecap="round"/><rect x="7.31" y="144.80" width="142.00" height="96.00" rx="14" fill="#FBFBF9" stroke="#C9CAC2" stroke-width="2.8"/><rect x="22.93" y="159.20" width="66.46" height="13.00" rx="4.032" fill="#C9CAC2"/><rect x="22.93" y="179.36" width="104.11" height="9.00" rx="2.496" fill="#C9CAC2"/><rect x="27.19" y="282.60" width="142.00" height="96.00" rx="14" fill="#FBFBF9" stroke="#C9CAC2" stroke-width="2.8"/><rect x="42.81" y="297.00" width="66.46" height="13.00" rx="4.032" fill="#C9CAC2"/><rect x="42.81" y="317.16" width="104.11" height="9.00" rx="2.496" fill="#C9CAC2"/><rect x="433.68" y="264.33" width="142.00" height="96.00" rx="14" fill="#FBFBF9" stroke="#C9CAC2" stroke-width="2.8"/><rect x="449.30" y="278.73" width="66.46" height="13.00" rx="4.032" fill="#C9CAC2"/><rect x="449.30" y="298.89" width="104.11" height="9.00" rx="2.496" fill="#C9CAC2"/><rect x="720.46" y="164.14" width="142.00" height="96.00" rx="14" fill="#FBFBF9" stroke="#C9CAC2" stroke-width="2.8"/><rect x="736.08" y="178.54" width="66.46" height="13.00" rx="4.032" fill="#C9CAC2"/><rect x="736.08" y="198.70" width="104.11" height="9.00" rx="2.496" fill="#C9CAC2"/><rect x="953.13" y="160.74" width="142.00" height="96.00" rx="14" fill="#FBFBF9" stroke="#C9CAC2" stroke-width="2.8"/><rect x="968.75" y="175.14" width="66.46" height="13.00" rx="4.032" fill="#C9CAC2"/><rect x="968.75" y="195.30" width="104.11" height="9.00" rx="2.496" fill="#C9CAC2"/><rect x="1273.13" y="133.78" width="142.00" height="96.00" rx="14" fill="#FBFBF9" stroke="#C9CAC2" stroke-width="2.8"/><rect x="1288.75" y="148.18" width="66.46" height="13.00" rx="4.032" fill="#C9CAC2"/><rect x="1288.75" y="168.34" width="104.11" height="9.00" rx="2.496" fill="#C9CAC2"/><rect x="-124.16" y="467.21" width="142.00" height="96.00" rx="14" fill="#FBFBF9" stroke="#C9CAC2" stroke-width="2.8"/><rect x="-108.54" y="481.61" width="66.46" height="13.00" rx="4.032" fill="#C9CAC2"/><rect x="-108.54" y="501.77" width="104.11" height="9.00" rx="2.496" fill="#C9CAC2"/><rect x="14.73" y="476.58" width="142.00" height="96.00" rx="14" fill="#FBFBF9" stroke="#C9CAC2" stroke-width="2.8"/><rect x="30.35" y="490.98" width="66.46" height="13.00" rx="4.032" fill="#C9CAC2"/><rect x="30.35" y="511.14" width="104.11" height="9.00" rx="2.496" fill="#C9CAC2"/><rect x="424.63" y="457.35" width="142.00" height="96.00" rx="14" fill="#FBFBF9" stroke="#C9CAC2" stroke-width="2.8"/><rect x="440.25" y="471.75" width="66.46" height="13.00" rx="4.032" fill="#C9CAC2"/><rect x="440.25" y="491.91" width="104.11" height="9.00" rx="2.496" fill="#C9CAC2"/><rect x="779.77" y="402.00" width="142.00" height="96.00" rx="14" fill="#FBFBF9" stroke="#C9CAC2" stroke-width="2.8"/><rect x="795.39" y="416.40" width="66.46" height="13.00" rx="4.032" fill="#C9CAC2"/><rect x="795.39" y="436.56" width="104.11" height="9.00" rx="2.496" fill="#C9CAC2"/><rect x="906.21" y="479.06" width="142.00" height="96.00" rx="14" fill="#FBFBF9" stroke="#C9CAC2" stroke-width="2.8"/><rect x="921.83" y="493.46" width="66.46" height="13.00" rx="4.032" fill="#C9CAC2"/><rect x="921.83" y="513.62" width="104.11" height="9.00" rx="2.496" fill="#C9CAC2"/><rect x="1209.43" y="362.12" width="142.00" height="96.00" rx="14" fill="#FBFBF9" stroke="#C9CAC2" stroke-width="2.8"/><rect x="1225.05" y="376.52" width="66.46" height="13.00" rx="4.032" fill="#C9CAC2"/><rect x="1225.05" y="396.68" width="104.11" height="9.00" rx="2.496" fill="#C9CAC2"/><rect x="-143.20" y="641.91" width="142.00" height="96.00" rx="14" fill="#FBFBF9" stroke="#C9CAC2" stroke-width="2.8"/><rect x="-127.58" y="656.31" width="66.46" height="13.00" rx="4.032" fill="#C9CAC2"/><rect x="-127.58" y="676.47" width="104.11" height="9.00" rx="2.496" fill="#C9CAC2"/><rect x="41.67" y="662.74" width="142.00" height="96.00" rx="14" fill="#FBFBF9" stroke="#C9CAC2" stroke-width="2.8"/><rect x="57.29" y="677.14" width="66.46" height="13.00" rx="4.032" fill="#C9CAC2"/><rect x="57.29" y="697.30" width="104.11" height="9.00" rx="2.496" fill="#C9CAC2"/><rect x="535.01" y="574.03" width="142.00" height="96.00" rx="14" fill="#FBFBF9" stroke="#C9CAC2" stroke-width="2.8"/><rect x="550.63" y="588.43" width="66.46" height="13.00" rx="4.032" fill="#C9CAC2"/><rect x="550.63" y="608.59" width="104.11" height="9.00" rx="2.496" fill="#C9CAC2"/><rect x="805.97" y="637.29" width="142.00" height="96.00" rx="14" fill="#FBFBF9" stroke="#C9CAC2" stroke-width="2.8"/><rect x="821.59" y="651.69" width="66.46" height="13.00" rx="4.032" fill="#C9CAC2"/><rect x="821.59" y="671.85" width="104.11" height="9.00" rx="2.496" fill="#C9CAC2"/><rect x="1009.54" y="611.95" width="142.00" height="96.00" rx="14" fill="#FBFBF9" stroke="#C9CAC2" stroke-width="2.8"/><rect x="1025.16" y="626.35" width="66.46" height="13.00" rx="4.032" fill="#C9CAC2"/><rect x="1025.16" y="646.51" width="104.11" height="9.00" rx="2.496" fill="#C9CAC2"/><rect x="1357.94" y="553.20" width="142.00" height="96.00" rx="14" fill="#FBFBF9" stroke="#C9CAC2" stroke-width="2.8"/><rect x="1373.56" y="567.60" width="66.46" height="13.00" rx="4.032" fill="#C9CAC2"/><rect x="1373.56" y="587.76" width="104.11" height="9.00" rx="2.496" fill="#C9CAC2"/></svg>