<svg xmlns="http://www.w3.org/2000/svg" viewBox="102.4 79.9 1355.8 736.2" width="1356" height="736" role="img"><rect x="-2.00" y="-2.00" width="1604.00" height="904.00" fill="#0C0C0C"/><rect x="160.00" y="122.00" width="320.00" height="108.00" rx="14" fill="#161616" stroke="#F3F3EF" stroke-width="3.2"/><rect x="195.20" y="138.20" width="154.75" height="13.00" rx="4.5360000000000005" fill="#F3F3EF"/><rect x="195.20" y="160.88" width="234.62" height="9.00" rx="2.808" fill="#C9CAC2"/><path d="M480 176 C640 176 700 450 860 450" fill="none" stroke="#F3F3EF" stroke-width="3.4" stroke-linecap="round" stroke-linejoin="round"/><rect x="160.00" y="258.00" width="320.00" height="108.00" rx="14" fill="#161616" stroke="#F3F3EF" stroke-width="3.2"/><rect x="195.20" y="274.20" width="154.75" height="13.00" rx="4.5360000000000005" fill="#F3F3EF"/><rect x="195.20" y="296.88" width="234.62" height="9.00" rx="2.808" fill="#C9CAC2"/><path d="M480 312 C640 312 700 450 860 450" fill="none" stroke="#F3F3EF" stroke-width="3.4" stroke-linecap="round" stroke-linejoin="round"/><rect x="160.00" y="394.00" width="320.00" height="108.00" rx="14" fill="#161616" stroke="#F3F3EF" stroke-width="3.2"/><rect x="195.20" y="410.20" width="154.75" height="13.00" rx="4.5360000000000005" fill="#F3F3EF"/><rect x="195.20" y="432.88" width="234.62" height="9.00" rx="2.808" fill="#C9CAC2"/><path d="M480 448 C640 448 700 450 860 450" fill="none" stroke="#F3F3EF" stroke-width="3.4" stroke-linecap="round" stroke-linejoin="round"/><rect x="160.00" y="530.00" width="320.00" height="108.00" rx="14" fill="#161616" stroke="#F3F3EF" stroke-width="3.2"/><rect x="195.20" y="546.20" width="154.75" height="13.00" rx="4.5360000000000005" fill="#F3F3EF"/><rect x="195.20" y="568.88" width="234.62" height="9.00" rx="2.808" fill="#C9CAC2"/><path d="M480 584 C640 584 700 450 860 450" fill="none" stroke="#F3F3EF" stroke-width="3.4" stroke-linecap="round" stroke-linejoin="round"/><rect x="160.00" y="666.00" width="320.00" height="108.00" rx="14" fill="#161616" stroke="#F3F3EF" stroke-width="3.2"/><rect x="195.20" y="682.20" width="154.75" height="13.00" rx="4.5360000000000005" fill="#F3F3EF"/><rect x="195.20" y="704.88" width="234.62" height="9.00" rx="2.808" fill="#C9CAC2"/><path d="M480 720 C640 720 700 450 860 450" fill="none" stroke="#F3F3EF" stroke-width="3.4" stroke-linecap="round" stroke-linejoin="round"/><rect x="880.00" y="396.00" width="520.00" height="108.00" rx="54" fill="none" stroke="#E8613C" stroke-width="4.5"/><rect x="906.00" y="424.00" width="365.04" height="52.00" rx="26" fill="#E8613C"/></svg>