<svg xmlns="http://www.w3.org/2000/svg" viewBox="0 0 1200 800" width="1200" height="800" role="img"><path d="M318.00 400.00 Q511.00 365.26 704.00 400.00" fill="none" stroke="#101010" stroke-width="4.2" stroke-linecap="round" stroke-linejoin="round"/><path d="M318.00 584.00 Q494.44 457.26 704.00 400.00" fill="none" stroke="#101010" stroke-width="4.2" stroke-linecap="round" stroke-linejoin="round"/><rect x="74.00" y="91.00" width="244.00" height="66.00" rx="33.0" fill="#FBFBF9" stroke="#C9CAC2" stroke-width="2.8"/><rect x="147.20" y="116.00" width="97.60" height="16.00" rx="8" fill="#C9CAC2"/><rect x="74.00" y="183.00" width="244.00" height="66.00" rx="33.0" fill="#FBFBF9" stroke="#C9CAC2" stroke-width="2.8"/><rect x="147.20" y="208.00" width="97.60" height="16.00" rx="8" fill="#C9CAC2"/><rect x="74.00" y="275.00" width="244.00" height="66.00" rx="33.0" fill="#FBFBF9" stroke="#C9CAC2" stroke-width="2.8"/><rect x="147.20" y="300.00" width="97.60" height="16.00" rx="8" fill="#C9CAC2"/><rect x="74.00" y="367.00" width="244.00" height="66.00" rx="33.0" fill="#FBFBF9" stroke="#101010" stroke-width="3.4"/><rect x="147.20" y="392.00" width="97.60" height="16.00" rx="8" fill="#101010"/><rect x="74.00" y="459.00" width="244.00" height="66.00" rx="33.0" fill="#FBFBF9" stroke="#C9CAC2" stroke-width="2.8"/><rect x="147.20" y="484.00" width="97.60" height="16.00" rx="8" fill="#C9CAC2"/><rect x="74.00" y="551.00" width="244.00" height="66.00" rx="33.0" fill="#FBFBF9" stroke="#101010" stroke-width="3.4"/><rect x="147.20" y="576.00" width="97.60" height="16.00" rx="8" fill="#101010"/><rect x="74.00" y="643.00" width="244.00" height="66.00" rx="33.0" fill="#FBFBF9" stroke="#C9CAC2" stroke-width="2.8"/><rect x="147.20" y="668.00" width="97.60" height="16.00" rx="8" fill="#C9CAC2"/><rect x="704.00" y="312.00" width="336.00" height="176.00" rx="14" fill="#FBFBF9" stroke="#101010" stroke-width="5"/><rect x="798.08" y="383.28" width="147.84" height="33.44" rx="16.72" fill="#101010"/></svg>