<svg xmlns="http://www.w3.org/2000/svg" viewBox="51.2 103.8 1092.4 592.8" width="1092" height="593" role="img"><rect x="95.00" y="250.00" width="230.00" height="300.00" rx="14" fill="#FBFBF9" stroke="#101010" stroke-width="3.6"/><rect x="122.60" y="322.00" width="174.80" height="21.00" rx="10.500000000000002" fill="#101010"/><rect x="122.60" y="382.00" width="125.86" height="21.00" rx="10.500000000000002" fill="#C9CAC2"/><rect x="122.60" y="442.00" width="150.33" height="21.00" rx="10.500000000000002" fill="#C9CAC2"/><line x1="325.00" y1="400.00" x2="430.00" y2="400.00" stroke="#101010" stroke-width="3" stroke-linecap="round"/><line x1="430.00" y1="200.00" x2="430.00" y2="600.00" stroke="#101010" stroke-width="3" stroke-linecap="round"/><line x1="430.00" y1="200.00" x2="560.00" y2="200.00" stroke="#101010" stroke-width="2.6" stroke-linecap="round"/><rect x="560.00" y="141.00" width="160.00" height="118.00" rx="14" fill="#FBFBF9" stroke="#101010" stroke-width="2.4"/><rect x="579.20" y="169.32" width="121.60" height="8.26" rx="4.130000000000001" fill="#101010"/><rect x="579.20" y="192.92" width="87.55" height="8.26" rx="4.130000000000001" fill="#C9CAC2"/><path d="M668.80 235.40 l12.00 12.80 L700.80 221.80" fill="none" stroke="#101010" stroke-width="2.16" stroke-linecap="round" stroke-linejoin="round"/><rect x="750.00" y="141.00" width="160.00" height="118.00" rx="14" fill="#FBFBF9" stroke="#101010" stroke-width="2.4"/><rect x="769.20" y="169.32" width="121.60" height="8.26" rx="4.130000000000001" fill="#101010"/><rect x="769.20" y="192.92" width="87.55" height="8.26" rx="4.130000000000001" fill="#C9CAC2"/><path d="M858.80 235.40 l12.00 12.80 L890.80 221.80" fill="none" stroke="#101010" stroke-width="2.16" stroke-linecap="round" stroke-linejoin="round"/><rect x="940.00" y="141.00" width="160.00" height="118.00" rx="14" fill="#FBFBF9" stroke="#101010" stroke-width="2.4"/><rect x="959.20" y="169.32" width="121.60" height="8.26" rx="4.130000000000001" fill="#101010"/><rect x="959.20" y="192.92" width="87.55" height="8.26" rx="4.130000000000001" fill="#C9CAC2"/><path d="M1048.80 235.40 l12.00 12.80 L1080.80 221.80" fill="none" stroke="#101010" stroke-width="2.16" stroke-linecap="round" stroke-linejoin="round"/><line x1="430.00" y1="400.00" x2="560.00" y2="400.00" stroke="#101010" stroke-width="2.6" stroke-linecap="round"/><rect x="560.00" y="341.00" width="160.00" height="118.00" rx="14" fill="#FBFBF9" stroke="#101010" stroke-width="2.4"/><rect x="579.20" y="369.32" width="121.60" height="8.26" rx="4.130000000000001" fill="#101010"/><rect x="579.20" y="392.92" width="87.55" height="8.26" rx="4.130000000000001" fill="#C9CAC2"/><path d="M668.80 435.40 l12.00 12.80 L700.80 421.80" fill="none" stroke="#101010" stroke-width="2.16" stroke-linecap="round" stroke-linejoin="round"/><rect x="750.00" y="341.00" width="160.00" height="118.00" rx="14" fill="#FBFBF9" stroke="#101010" stroke-width="2.4"/><rect x="769.20" y="369.32" width="121.60" height="8.26" rx="4.130000000000001" fill="#101010"/><rect x="769.20" y="392.92" width="87.55" height="8.26" rx="4.130000000000001" fill="#C9CAC2"/><path d="M858.80 435.40 l12.00 12.80 L890.80 421.80" fill="none" stroke="#101010" stroke-width="2.16" stroke-linecap="round" stroke-linejoin="round"/><rect x="940.00" y="341.00" width="160.00" height="118.00" rx="14" fill="#FBFBF9" stroke="#101010" stroke-width="2.4"/><rect x="959.20" y="369.32" width="121.60" height="8.26" rx="4.130000000000001" fill="#101010"/><rect x="959.20" y="392.92" width="87.55" height="8.26" rx="4.130000000000001" fill="#C9CAC2"/><path d="M1048.80 435.40 l12.00 12.80 L1080.80 421.80" fill="none" stroke="#101010" stroke-width="2.16" stroke-linecap="round" stroke-linejoin="round"/><line x1="430.00" y1="600.00" x2="560.00" y2="600.00" stroke="#101010" stroke-width="2.6" stroke-linecap="round"/><rect x="560.00" y="541.00" width="160.00" height="118.00" rx="14" fill="#FBFBF9" stroke="#101010" stroke-width="2.4"/><rect x="579.20" y="569.32" width="121.60" height="8.26" rx="4.130000000000001" fill="#101010"/><rect x="579.20" y="592.92" width="87.55" height="8.26" rx="4.130000000000001" fill="#C9CAC2"/><path d="M668.80 635.40 l12.00 12.80 L700.80 621.80" fill="none" stroke="#101010" stroke-width="2.16" stroke-linecap="round" stroke-linejoin="round"/><rect x="750.00" y="541.00" width="160.00" height="118.00" rx="14" fill="#FBFBF9" stroke="#101010" stroke-width="2.4"/><rect x="769.20" y="569.32" width="121.60" height="8.26" rx="4.130000000000001" fill="#101010"/><rect x="769.20" y="592.92" width="87.55" height="8.26" rx="4.130000000000001" fill="#C9CAC2"/><path d="M858.80 635.40 l12.00 12.80 L890.80 621.80" fill="none" stroke="#101010" stroke-width="2.16" stroke-linecap="round" stroke-linejoin="round"/><rect x="940.00" y="541.00" width="160.00" height="118.00" rx="14" fill="#FBFBF9" stroke="#E8613C" stroke-width="3.2"/><rect x="959.20" y="569.32" width="121.60" height="8.26" rx="4.130000000000001" fill="#E8613C"/><rect x="959.20" y="592.92" width="87.55" height="8.26" rx="4.130000000000001" fill="#C9CAC2"/><path d="M1048.80 635.40 l12.00 12.80 L1080.80 621.80" fill="none" stroke="#E8613C" stroke-width="2.8800000000000003" stroke-linecap="round" stroke-linejoin="round"/></svg>