<svg xmlns="http://www.w3.org/2000/svg" viewBox="0 0 1200 800" width="1200" height="800" role="img"><rect x="-2.00" y="-2.00" width="1204.00" height="804.00" fill="#F3F3EF"/><circle cx="300.00" cy="116.00" r="30.00" fill="none" stroke="#101010" stroke-width="3.6"/><rect x="234.00" y="176.00" width="132.00" height="470.00" rx="66.0" fill="#DCDCD5"/><rect x="234.00" y="213.60" width="132.00" height="432.40" rx="66.0" fill="#101010"/><path d="M600 83 L633 116 L600 149 L567 116 Z" fill="none" stroke="#101010" stroke-width="3.6" stroke-linecap="round" stroke-linejoin="round"/><rect x="534.00" y="176.00" width="132.00" height="470.00" rx="66.0" fill="#DCDCD5"/><rect x="534.00" y="354.60" width="132.00" height="291.40" rx="66.0" fill="#101010"/><path d="M900 84 L930 141 L870 141 Z" fill="none" stroke="#101010" stroke-width="3.6" stroke-linecap="round" stroke-linejoin="round"/><rect x="834.00" y="176.00" width="132.00" height="470.00" rx="66.0" fill="#DCDCD5"/><rect x="834.00" y="411.00" width="132.00" height="235.00" rx="66.0" fill="#101010"/><line x1="96.00" y1="676.00" x2="1104.00" y2="676.00" stroke="#101010" stroke-width="3.4" stroke-linecap="round"/><circle cx="900.00" cy="477.00" r="21.00" fill="#E8613C"/><rect x="834.00" y="692.00" width="132.00" height="14.00" rx="7" fill="#E8613C"/></svg>