<svg xmlns="http://www.w3.org/2000/svg" viewBox="52.5 131.1 1095.0 630.4" width="1095" height="630" role="img"><rect x="-2.00" y="-2.00" width="1204.00" height="804.00" fill="#F3F3EF"/><rect x="130.00" y="169.00" width="200.00" height="262.00" rx="14" fill="#FBFBF9" stroke="#101010" stroke-width="2.8"/><rect x="148.00" y="189.96" width="164.00" height="131.00" rx="8.4" fill="none" stroke="#101010" stroke-width="2.2399999999999998"/><circle cx="193.92" cy="242.36" r="19.65" fill="none" stroke="#101010" stroke-width="2.2399999999999998"/><path d="M167.7 302.6 L223.4 252.8 L292.3 302.6" fill="none" stroke="#101010" stroke-width="2.2399999999999998" stroke-linecap="round" stroke-linejoin="round"/><rect x="148.00" y="341.92" width="127.92" height="11.79" rx="6.288" fill="#101010"/><rect x="370.00" y="169.00" width="200.00" height="262.00" rx="14" fill="#FBFBF9" stroke="#101010" stroke-width="2.8"/><rect x="388.00" y="189.96" width="164.00" height="131.00" rx="8.4" fill="none" stroke="#101010" stroke-width="2.2399999999999998"/><circle cx="433.92" cy="242.36" r="19.65" fill="none" stroke="#101010" stroke-width="2.2399999999999998"/><path d="M407.7 302.6 L463.4 252.8 L532.3 302.6" fill="none" stroke="#101010" stroke-width="2.2399999999999998" stroke-linecap="round" stroke-linejoin="round"/><rect x="388.00" y="341.92" width="127.92" height="11.79" rx="6.288" fill="#101010"/><rect x="610.00" y="169.00" width="200.00" height="262.00" rx="14" fill="#FBFBF9" stroke="#E8613C" stroke-width="3.8"/><rect x="628.00" y="189.96" width="164.00" height="131.00" rx="8.4" fill="none" stroke="#E8613C" stroke-width="3.04"/><circle cx="673.92" cy="242.36" r="19.65" fill="none" stroke="#E8613C" stroke-width="3.04"/><path d="M647.7 302.6 L703.4 252.8 L772.3 302.6" fill="none" stroke="#E8613C" stroke-width="3.04" stroke-linecap="round" stroke-linejoin="round"/><rect x="628.00" y="341.92" width="127.92" height="11.79" rx="6.288" fill="#E8613C"/><rect x="850.00" y="169.00" width="200.00" height="262.00" rx="14" fill="#FBFBF9" stroke="#101010" stroke-width="2.8"/><rect x="868.00" y="189.96" width="164.00" height="131.00" rx="8.4" fill="none" stroke="#101010" stroke-width="2.2399999999999998"/><circle cx="913.92" cy="242.36" r="19.65" fill="none" stroke="#101010" stroke-width="2.2399999999999998"/><path d="M887.7 302.6 L943.4 252.8 L1012.3 302.6" fill="none" stroke="#101010" stroke-width="2.2399999999999998" stroke-linecap="round" stroke-linejoin="round"/><rect x="868.00" y="341.92" width="127.92" height="11.79" rx="6.288" fill="#101010"/><rect x="180.00" y="642.00" width="100.00" height="58.00" rx="13" fill="#C9CAC2"/><rect x="420.00" y="608.00" width="100.00" height="92.00" rx="13" fill="#C9CAC2"/><rect x="660.00" y="490.00" width="100.00" height="210.00" rx="13" fill="#E8613C"/><rect x="900.00" y="626.00" width="100.00" height="74.00" rx="13" fill="#C9CAC2"/><line x1="96.00" y1="724.00" x2="1104.00" y2="724.00" stroke="#101010" stroke-width="3" stroke-linecap="round"/></svg>