<svg xmlns="http://www.w3.org/2000/svg" viewBox="92.0 0.0 1490.8 773.8" width="1491" height="774" role="img"><rect x="-2.00" y="-2.00" width="1604.00" height="904.00" fill="#F3F3EF"/><rect x="150.00" y="260.00" width="300.00" height="380.00" rx="14" fill="#FBFBF9" stroke="#101010" stroke-width="4"/><rect x="177.00" y="290.40" width="246.00" height="190.00" rx="8.4" fill="none" stroke="#101010" stroke-width="3.2"/><circle cx="245.88" cy="366.40" r="28.50" fill="none" stroke="#101010" stroke-width="3.2"/><path d="M206.5 453.8 L290.2 381.6 L393.5 453.8" fill="none" stroke="#101010" stroke-width="3.2" stroke-linecap="round" stroke-linejoin="round"/><rect x="177.00" y="510.80" width="191.88" height="17.10" rx="9.120000000000001" fill="#101010"/><rect x="177.00" y="560.20" width="123.00" height="17.10" rx="9.120000000000001" fill="#C9CAC2"/><path d="M460 450 C580 450 600 220 694 220" fill="none" stroke="#C9CAC2" stroke-width="2.8" stroke-linecap="round" stroke-linejoin="round"/><rect x="720.00" y="120.00" width="200.00" height="200.00" rx="14" fill="#FBFBF9" stroke="#101010" stroke-width="2.8"/><rect x="738.00" y="136.00" width="164.00" height="100.00" rx="8.4" fill="none" stroke="#101010" stroke-width="2.2399999999999998"/><rect x="738.00" y="252.00" width="127.92" height="9.00" rx="4.8" fill="#101010"/><rect x="738.00" y="278.00" width="82.00" height="9.00" rx="4.8" fill="#C9CAC2"/><path d="M460 450 C580 450 550 640 644 640" fill="none" stroke="#C9CAC2" stroke-width="2.8" stroke-linecap="round" stroke-linejoin="round"/><rect x="670.00" y="550.00" width="300.00" height="180.00" rx="14" fill="#FBFBF9" stroke="#101010" stroke-width="2.8"/><rect x="697.00" y="564.40" width="246.00" height="90.00" rx="8.4" fill="none" stroke="#101010" stroke-width="2.2399999999999998"/><rect x="697.00" y="668.80" width="191.88" height="9.00" rx="4.32" fill="#101010"/><rect x="697.00" y="692.20" width="123.00" height="9.00" rx="4.32" fill="#C9CAC2"/><path d="M460 450 C580 450 970 190 1064 190" fill="none" stroke="#C9CAC2" stroke-width="2.8" stroke-linecap="round" stroke-linejoin="round"/><rect x="1090.00" y="40.00" width="180.00" height="300.00" rx="14" fill="#FBFBF9" stroke="#101010" stroke-width="2.8"/><rect x="1106.20" y="64.00" width="147.60" height="150.00" rx="8.4" fill="none" stroke="#101010" stroke-width="2.2399999999999998"/><rect x="1106.20" y="238.00" width="115.13" height="13.50" rx="7.2" fill="#101010"/><rect x="1106.20" y="277.00" width="73.80" height="13.50" rx="7.2" fill="#C9CAC2"/><path d="M460 450 C580 450 930 560 1024 560" fill="none" stroke="#C9CAC2" stroke-width="2.8" stroke-linecap="round" stroke-linejoin="round"/><rect x="1050.00" y="440.00" width="260.00" height="240.00" rx="14" fill="#FBFBF9" stroke="#101010" stroke-width="2.8"/><rect x="1073.40" y="459.20" width="213.20" height="120.00" rx="8.4" fill="none" stroke="#101010" stroke-width="2.2399999999999998"/><rect x="1073.40" y="598.40" width="166.30" height="10.80" rx="5.76" fill="#101010"/><rect x="1073.40" y="629.60" width="106.60" height="10.80" rx="5.76" fill="#C9CAC2"/><path d="M460 450 C580 450 1255 400 1349 400" fill="none" stroke="#C9CAC2" stroke-width="2.8" stroke-linecap="round" stroke-linejoin="round"/><rect x="1375.00" y="210.00" width="150.00" height="380.00" rx="14" fill="#FBFBF9" stroke="#E8613C" stroke-width="3.6"/><rect x="1388.50" y="240.40" width="123.00" height="190.00" rx="8.4" fill="none" stroke="#E8613C" stroke-width="2.8800000000000003"/><rect x="1388.50" y="460.80" width="95.94" height="17.10" rx="9.120000000000001" fill="#E8613C"/><rect x="1388.50" y="510.20" width="61.50" height="17.10" rx="9.120000000000001" fill="#C9CAC2"/></svg>